<svg width="60" height="60" xmlns="http://www.w3.org/2000/svg">
 <title/>
 <desc/>

 <g>
  <title>background</title>
  <rect fill="none" id="canvas_background" height="62" width="62" y="-1" x="-1"/>
 </g>
 <g>
  <title>Layer 1</title>
  <g id="Icon-37" fill="#000000">
   <path fill="#02c933" id="map" d="m30,10.092937c1.103,0 2,-0.897 2,-2c0,-1.103 -0.897,-2 -2,-2c-1.103,0 -2,0.897 -2,2c0,1.103 0.897,2 2,2l0,0zm-6,-2c0,2.096 1.833,5.104 2.801,6.401l3.199,3.998l3.219,-4.024c0.963,-1.102 2.781,-4.308 2.781,-6.375c0,-3.309 -2.691,-6 -6,-6c-3.309,0 -6,2.691 -6,6l0,0zm1.219,7.625c-0.348,-0.465 -3.219,-4.404 -3.219,-7.625c0,-4.411 3.589,-8 8,-8c4.411,0 8,3.589 8,8c0,2.755 -2.15,6.405 -3.248,7.658l-3.971,4.967c-0.19,0.237 -0.477,0.375 -0.781,0.375c-0.304,0 -0.591,-0.138 -0.781,-0.375l-4,-5zm15.781,39.375c0.552,0 1,-0.447 1,-1l0,-14.246l13.275,-3.792c0.531,-0.152 0.838,-0.706 0.686,-1.236c-0.151,-0.532 -0.705,-0.833 -1.236,-0.688l-14,4c-0.429,0.123 -0.725,0.516 -0.725,0.962l0,15c0,0.553 0.448,1 1,1l0,0zm-4,-1c0.552,0 1,-0.447 1,-1l0,-14c0,-0.429 -0.274,-0.811 -0.681,-0.947l-14,-4.719c-0.524,-0.179 -1.091,0.103 -1.267,0.628c-0.176,0.523 0.105,1.091 0.629,1.267l13.319,4.489l0,13.282c0,0.553 0.448,1 1,1l0,0zm-22.287,-26.958l-10,3c-0.529,0.159 -0.83,0.717 -0.671,1.245c0.13,0.434 0.527,0.713 0.958,0.713c0.095,0 0.191,-0.014 0.287,-0.042l10,-3c0.529,-0.159 0.83,-0.717 0.671,-1.245c-0.159,-0.529 -0.715,-0.825 -1.245,-0.671l0,0zm4.287,-19.042c-0.552,0 -1,0.447 -1,1l0,18c0,0.431 0.275,0.812 0.684,0.948l18,6c0.103,0.035 0.21,0.052 0.316,0.052c0.207,0 0.412,-0.064 0.584,-0.188c0.262,-0.189 0.416,-0.491 0.416,-0.812l0,-15c0,-0.553 -0.448,-1 -1,-1c-0.552,0 -1,0.447 -1,1l0,13.612l-16,-5.333l0,-17.279c0,-0.553 -0.448,-1 -1,-1l0,0zm39.02,0.907c-0.983,-0.798 -2.124,-1.109 -3.295,-0.869l-14,4c-0.429,0.123 -0.725,0.516 -0.725,0.962l0,20c0,0.313 0.147,0.609 0.398,0.799c0.249,0.187 0.575,0.249 0.877,0.163l14,-4c0.531,-0.152 0.838,-0.706 0.686,-1.236c-0.151,-0.532 -0.705,-0.836 -1.236,-0.688l-12.725,3.636l0,-17.92l13.204,-3.775c0.667,-0.139 1.26,0.242 1.553,0.48c0.755,0.614 1.243,1.611 1.243,2.541l0,38c0,1.314 -0.997,2.229 -3.275,3.038l-13.688,3.911l-21.037,-7.649l0,-17.3c0,-0.313 -0.147,-0.609 -0.398,-0.799c-0.25,-0.188 -0.575,-0.248 -0.877,-0.163l-14,4c-0.531,0.152 -0.838,0.706 -0.686,1.236c0.151,0.532 0.705,0.833 1.236,0.688l12.725,-3.636l0,16.674c0,0.421 0.263,0.796 0.658,0.939l22,8c0.111,0.04 0.226,0.061 0.342,0.061c0.092,0 0.185,-0.013 0.275,-0.038l14.059,-4.02c1.276,-0.452 4.666,-1.654 4.666,-4.942l0,-38c0,-1.53 -0.759,-3.099 -1.98,-4.093l0,0zm-42.062,42.962c0.151,0.53 -0.156,1.084 -0.687,1.236l-9.996,2.857c-0.326,0.092 -0.653,0.138 -0.979,0.138c-0.782,0 -1.547,-0.264 -2.224,-0.776c-1.259,-0.952 -2.072,-2.649 -2.072,-4.324l0,-38c0,-3.288 3.39,-4.49 4.666,-4.942l14.059,-4.02c0.531,-0.146 1.085,0.156 1.236,0.688c0.152,0.53 -0.155,1.084 -0.686,1.236l-14,4c-2.278,0.809 -3.275,1.724 -3.275,3.038l0,38c0,1.037 0.525,2.16 1.278,2.729c0.459,0.347 0.946,0.451 1.45,0.309l9.993,-2.856c0.531,-0.148 1.085,0.156 1.237,0.687l0,0z"/>
  </g>
 </g>
</svg>